<svg width="28" height="28" viewBox="0 0 28 28" fill="none" xmlns="http://www.w3.org/2000/svg">
<path d="M11.053 18.6664L21.7642 22.4978C21.9441 22.5625 22.1362 22.5861 22.3265 22.567C22.5168 22.5479 22.7004 22.4865 22.8639 22.3873C23.0273 22.2881 23.1666 22.1536 23.2714 21.9937C23.3763 21.8338 23.4441 21.6524 23.4698 21.4629L25.655 4.94528C25.788 3.93962 24.7462 3.18945 23.8268 3.62695L3.06133 13.5389C2.03466 14.0289 2.11166 15.5106 3.18499 15.8921L6.03166 16.9048L7.58332 17.4496M15.1667 20.1364L12.845 24.0168C12.0867 24.9594 10.5595 24.4263 10.5595 23.2199V20.1131C10.5595 19.5268 10.7803 18.962 11.1778 18.5311L15.694 13.6311" stroke="#4F78FF" stroke-width="1.66667" stroke-linecap="round" stroke-linejoin="round"/>
</svg>
