<svg width="33" height="32" viewBox="0 0 33 32" fill="none" xmlns="http://www.w3.org/2000/svg">
<path d="M25.4999 17.4286H17.9999V24.5714C17.9999 24.9503 17.8418 25.3137 17.5605 25.5816C17.2792 25.8495 16.8977 26 16.4999 26C16.1021 26 15.7205 25.8495 15.4392 25.5816C15.1579 25.3137 14.9999 24.9503 14.9999 24.5714V17.4286H7.49988C7.10205 17.4286 6.72052 17.2781 6.43922 17.0102C6.15791 16.7422 5.99988 16.3789 5.99988 16C5.99988 15.6211 6.15791 15.2578 6.43922 14.9898C6.72052 14.7219 7.10205 14.5714 7.49988 14.5714H14.9999V7.42857C14.9999 7.04969 15.1579 6.68633 15.4392 6.41842C15.7205 6.15051 16.1021 6 16.4999 6C16.8977 6 17.2792 6.15051 17.5605 6.41842C17.8418 6.68633 17.9999 7.04969 17.9999 7.42857V14.5714H25.4999C25.8977 14.5714 26.2792 14.7219 26.5605 14.9898C26.8418 15.2578 26.9999 15.6211 26.9999 16C26.9999 16.3789 26.8418 16.7422 26.5605 17.0102C26.2792 17.2781 25.8977 17.4286 25.4999 17.4286Z" fill="#4F78FF"/>
</svg>
