<svg width="33" height="32" viewBox="0 0 33 32" fill="none" xmlns="http://www.w3.org/2000/svg">
<path d="M10.2668 23.4664C12.6232 23.4664 14.5335 21.5562 14.5335 19.1998C14.5335 16.8434 12.6232 14.9331 10.2668 14.9331C7.91037 14.9331 6.00012 16.8434 6.00012 19.1998C6.00012 21.5562 7.91037 23.4664 10.2668 23.4664Z" fill="#4F78FF"/>
<path d="M20.4001 26.6668C21.8728 26.6668 23.0667 25.4729 23.0667 24.0002C23.0667 22.5274 21.8728 21.3335 20.4001 21.3335C18.9273 21.3335 17.7334 22.5274 17.7334 24.0002C17.7334 25.4729 18.9273 26.6668 20.4001 26.6668Z" fill="#4F78FF"/>
<path d="M20.9334 18.1335C24.4681 18.1335 27.3334 15.2681 27.3334 11.7335C27.3334 8.19887 24.4681 5.3335 20.9334 5.3335C17.3988 5.3335 14.5334 8.19887 14.5334 11.7335C14.5334 15.2681 17.3988 18.1335 20.9334 18.1335Z" fill="#4F78FF"/>
</svg>
