<svg width="23" height="23" viewBox="0 0 23 23" fill="none" xmlns="http://www.w3.org/2000/svg">
<path d="M3.69701 4.47778L18.3526 19.1334M15.1467 16.1618C13.9078 16.8293 12.5074 17.3013 11.0248 17.3013C7.79082 17.3013 4.94855 15.0553 3.31863 13.4349C2.8884 13.0072 2.67331 12.7934 2.53638 12.3736C2.43873 12.0742 2.4387 11.5368 2.53638 11.2375C2.67335 10.8177 2.88888 10.6033 3.31997 10.1749C4.1415 9.3583 5.27077 8.38313 6.60276 7.61661M17.8946 14.2178C18.1997 13.9495 18.4791 13.6855 18.7298 13.4363L18.7325 13.4335C19.1617 13.0068 19.377 12.7929 19.5136 12.3741C19.6113 12.0747 19.6111 11.5371 19.5135 11.2377C19.3766 10.818 19.1612 10.6036 18.7313 10.1762C17.1014 8.55579 14.2588 6.30974 11.0248 6.30974C10.7157 6.30974 10.4101 6.33026 10.1088 6.3688M12.2366 13.1796C11.9136 13.4646 11.4894 13.6375 11.0248 13.6375C10.0131 13.6375 9.19287 12.8174 9.19287 11.8056C9.19287 11.3114 9.38853 10.8631 9.70662 10.5336" stroke="#71717A" stroke-width="1.83195" stroke-linecap="round" stroke-linejoin="round"/>
</svg>
