<svg width="21" height="22" viewBox="0 0 21 22" fill="none" xmlns="http://www.w3.org/2000/svg">
<path d="M3.15157 12.9612C4.70741 14.5079 7.42077 16.6519 10.5078 16.6519C13.5948 16.6519 16.3076 14.5079 17.8635 12.9612C18.2738 12.5532 18.4796 12.3486 18.6103 11.9481C18.7035 11.6623 18.7035 11.1494 18.6103 10.8637C18.4796 10.4632 18.2738 10.2585 17.8635 9.8505C16.3076 8.30376 13.5948 6.15979 10.5078 6.15979C7.42077 6.15979 4.70741 8.30376 3.15157 9.8505C2.74092 10.2587 2.53558 10.463 2.40488 10.8637C2.31166 11.1494 2.31166 11.6623 2.40488 11.9481C2.53558 12.3487 2.74092 12.5529 3.15157 12.9612Z" stroke="#71717A" stroke-width="1.74869" stroke-linecap="round" stroke-linejoin="round"/>
<path d="M8.75892 11.4059C8.75892 12.3716 9.54184 13.1546 10.5076 13.1546C11.4734 13.1546 12.2563 12.3716 12.2563 11.4059C12.2563 10.4401 11.4734 9.65717 10.5076 9.65717C9.54184 9.65717 8.75892 10.4401 8.75892 11.4059Z" stroke="#71717A" stroke-width="1.74869" stroke-linecap="round" stroke-linejoin="round"/>
</svg>
