<svg width="25" height="25" viewBox="0 0 25 25" fill="none" xmlns="http://www.w3.org/2000/svg">
<path d="M13 9.37163C11.4444 5.84199 6 6.21793 6 10.7292C6 15.2405 13 19 13 19C13 19 20 15.2405 20 10.7292C20 6.21793 14.5556 5.84199 13 9.37163Z" fill="#8C8C90"/>
<path d="M13 19L12.7637 19.4404C12.9113 19.5197 13.0887 19.5197 13.2363 19.4404L13 19ZM13 19C13.2366 19.4405 13.2371 19.4405 13.2373 19.4404L13.2383 19.4395C13.2394 19.4388 13.2412 19.4376 13.2432 19.4365C13.2471 19.4344 13.2527 19.4316 13.2598 19.4277C13.2742 19.4199 13.2955 19.4085 13.3223 19.3936C13.3761 19.3635 13.4542 19.3192 13.5527 19.2617C13.7496 19.1469 14.0293 18.9786 14.3643 18.7627C15.0335 18.3314 15.929 17.7065 16.8262 16.9355C17.7214 16.1662 18.632 15.2392 19.3223 14.2012C20.0119 13.1641 20.4999 11.9878 20.5 10.7295C20.5 9.49727 20.1259 8.50611 19.502 7.78906C18.8804 7.07495 18.0375 6.66335 17.1523 6.54004C15.6512 6.33093 13.9974 6.9477 13 8.35938C12.0026 6.9477 10.3488 6.33093 8.84766 6.54004C7.9625 6.66335 7.11957 7.07495 6.49805 7.78906C5.87408 8.50611 5.5 9.49727 5.5 10.7295C5.50007 11.9878 5.98809 13.1641 6.67773 14.2012C7.36798 15.2392 8.27858 16.1662 9.17383 16.9355C10.071 17.7065 10.9665 18.3314 11.6357 18.7627C11.9707 18.9786 12.2504 19.1469 12.4473 19.2617C12.5458 19.3192 12.6239 19.3635 12.6777 19.3936C12.7045 19.4085 12.7258 19.4199 12.7402 19.4277C12.7473 19.4316 12.7529 19.4344 12.7568 19.4365C12.7588 19.4376 12.7606 19.4388 12.7617 19.4395L12.7627 19.4404L13 19Z" stroke="#3F3F46" stroke-opacity="0.6" stroke-linecap="round" stroke-linejoin="round"/>
</svg>
