<svg width="32" height="32" viewBox="0 0 32 32" fill="none" xmlns="http://www.w3.org/2000/svg">
<path d="M27.9666 12.0334L19.8999 3.96677L20.4666 3.40011C20.9777 2.889 21.6111 2.63922 22.3666 2.65077C23.1222 2.66233 23.7555 2.92322 24.2666 3.43344L28.5666 7.73344C29.0777 8.24455 29.3333 8.87255 29.3333 9.61744C29.3333 10.3623 29.0777 10.9899 28.5666 11.5001L27.9666 12.0334ZM11.5333 28.5334C11.0222 29.0446 10.3946 29.3001 9.65062 29.3001C8.90662 29.3001 8.27862 29.0446 7.76662 28.5334L3.46662 24.2334C2.95551 23.7223 2.69995 23.0948 2.69995 22.3508C2.69995 21.6068 2.95551 20.9788 3.46662 20.4668L3.99995 19.9334L12.0666 28.0001L11.5333 28.5334ZM16.3666 27.6001C16.0999 27.8668 15.7888 28.0001 15.4333 28.0001C15.0777 28.0001 14.7666 27.8668 14.4999 27.6001L4.39995 17.5001C4.13328 17.2334 3.99995 16.9223 3.99995 16.5668C3.99995 16.2112 4.13328 15.9001 4.39995 15.6334L6.29995 13.7001C6.56662 13.4334 6.88351 13.3001 7.25062 13.3001C7.61773 13.3001 7.93417 13.4334 8.19995 13.7001L10.2999 15.8001L15.8333 10.2668L13.7333 8.16677C13.4666 7.90011 13.3333 7.589 13.3333 7.23344C13.3333 6.87789 13.4666 6.56677 13.7333 6.30011L15.6333 4.36677C15.9 4.10011 16.2168 3.96677 16.5839 3.96677C16.9511 3.96677 17.2675 4.10011 17.5333 4.36677L27.6333 14.4668C27.8999 14.7334 28.0333 15.0503 28.0333 15.4174C28.0333 15.7846 27.8999 16.101 27.6333 16.3668L25.6999 18.2668C25.4333 18.5334 25.1222 18.6668 24.7666 18.6668C24.4111 18.6668 24.0999 18.5334 23.8333 18.2668L21.7333 16.1668L16.1999 21.7001L18.2999 23.8001C18.5666 24.0668 18.6999 24.3832 18.6999 24.7494C18.6999 25.1157 18.5666 25.4326 18.2999 25.7001L16.3666 27.6001Z" stroke="#A1A1AA" stroke-width="1.7"/>
</svg>
